<?xml version="1.0" encoding="utf-8" standalone="no"?>
<!DOCTYPE svg PUBLIC "-//W3C//DTD SVG 1.1//EN"
  "http://www.w3.org/Graphics/SVG/1.1/DTD/svg11.dtd">
<!-- Created with matplotlib (https://matplotlib.org/) -->
<svg height="208.8pt" version="1.1" viewBox="0 0 633.6 208.8" width="633.6pt" xmlns="http://www.w3.org/2000/svg" xmlns:xlink="http://www.w3.org/1999/xlink">
 <metadata>
  <rdf:RDF xmlns:cc="http://creativecommons.org/ns#" xmlns:dc="http://purl.org/dc/elements/1.1/" xmlns:rdf="http://www.w3.org/1999/02/22-rdf-syntax-ns#">
   <cc:Work>
    <dc:type rdf:resource="http://purl.org/dc/dcmitype/StillImage"/>
    <dc:date>2021-05-06T00:53:16.196610</dc:date>
    <dc:format>image/svg+xml</dc:format>
    <dc:creator>
     <cc:Agent>
      <dc:title>Matplotlib v3.3.4, https://matplotlib.org/</dc:title>
     </cc:Agent>
    </dc:creator>
   </cc:Work>
  </rdf:RDF>
 </metadata>
 <defs>
  <style type="text/css">*{stroke-linecap:butt;stroke-linejoin:round;}</style>
 </defs>
 <g id="figure_1">
  <g id="patch_1">
   <path d="M 0 208.8 
L 633.6 208.8 
L 633.6 0 
L 0 0 
z
" style="fill:none;"/>
  </g>
  <g id="axes_1">
   <g id="matplotlib.axis_1"/>
   <g id="matplotlib.axis_2"/>
   <g id="text_1">
    <g clip-path="url(#p4129173174)">
     <!-- $\Phi_4$ -->
     <g transform="translate(81.902 143.255125)scale(0.14 -0.14)">
      <defs>
       <path d="M 34.46875 56.9375 
Q 27.15625 55.90625 22.359375 51.65625 
Q 16.015625 46.046875 16.015625 36.375 
Q 16.015625 26.765625 22.359375 21.140625 
Q 27.15625 16.890625 34.46875 15.875 
z
M 44.34375 15.875 
Q 51.65625 16.890625 56.453125 21.140625 
Q 62.703125 26.765625 62.703125 36.375 
Q 62.703125 46.046875 56.453125 51.65625 
Q 51.65625 55.90625 44.34375 56.9375 
z
M 34.46875 7.71875 
Q 22.5625 8.796875 14.84375 15.328125 
Q 5.609375 23.140625 5.609375 36.375 
Q 5.609375 49.609375 14.84375 57.46875 
Q 22.515625 64.0625 34.46875 65.140625 
L 34.46875 72.90625 
L 44.34375 72.90625 
L 44.34375 65.140625 
Q 56.25 64.015625 63.921875 57.46875 
Q 73.09375 49.609375 73.09375 36.375 
Q 73.09375 23.1875 63.921875 15.328125 
Q 56.25 8.796875 44.34375 7.671875 
L 44.34375 0 
L 34.46875 0 
z
" id="DejaVuSans-934"/>
       <path d="M 37.796875 64.3125 
L 12.890625 25.390625 
L 37.796875 25.390625 
z
M 35.203125 72.90625 
L 47.609375 72.90625 
L 47.609375 25.390625 
L 58.015625 25.390625 
L 58.015625 17.1875 
L 47.609375 17.1875 
L 47.609375 0 
L 37.796875 0 
L 37.796875 17.1875 
L 4.890625 17.1875 
L 4.890625 26.703125 
z
" id="DejaVuSans-52"/>
      </defs>
      <use transform="translate(0 0.09375)" xlink:href="#DejaVuSans-934"/>
      <use transform="translate(79.667969 -16.3125)scale(0.7)" xlink:href="#DejaVuSans-52"/>
     </g>
    </g>
   </g>
   <g id="line2d_1">
    <path clip-path="url(#p4129173174)" d="M 7.2 153 
L 104.4 153 
L 104.4 153 
" style="fill:none;stroke:#000000;stroke-width:3;"/>
   </g>
   <g id="line2d_2">
    <path clip-path="url(#p4129173174)" d="M 104.4 153 
L 201.6 153 
L 201.6 153 
" style="fill:none;stroke:#000000;stroke-width:3;"/>
   </g>
   <g id="line2d_3">
    <path clip-path="url(#p4129173174)" d="M 104.4 153 
L 107.458119 152.879545 
L 110.497289 152.518925 
L 113.498679 151.920376 
L 116.443692 151.087606 
L 119.314078 150.025775 
L 122.092053 148.741463 
L 124.760403 147.242627 
L 127.302595 145.538554 
L 129.702876 143.639804 
L 131.946375 141.558142 
L 134.019189 139.306466 
L 135.908474 136.898728 
L 137.602525 134.349847 
L 139.090845 131.675617 
L 140.364211 128.892608 
L 141.414733 126.018063 
L 142.235903 123.069796 
L 142.822632 120.066072 
L 143.171284 117.025506 
L 143.279699 113.966936 
L 143.147205 110.909315 
L 142.774624 107.871588 
L 142.164263 104.872578 
L 141.319906 101.930867 
L 140.246783 99.064683 
L 138.951544 96.291786 
L 137.442215 93.629357 
L 135.728147 91.093893 
L 133.819963 88.701106 
L 131.729484 86.46582 
L 129.469665 84.401886 
L 127.054508 82.522094 
L 124.498978 80.838091 
L 121.818909 79.360311 
L 119.030908 78.097911 
L 116.152251 77.058713 
L 113.200773 76.249156 
L 110.194763 75.674257 
L 107.152848 75.337578 
L 104.093875 75.241205 
L 101.036799 75.385735 
L 98.000562 75.770273 
L 95.003978 76.392435 
L 92.065614 77.248367 
L 89.203677 78.332765 
L 86.435901 79.63891 
L 83.779434 81.158709 
L 81.250738 82.882745 
L 78.865481 84.800335 
L 76.638443 86.899597 
L 74.583422 89.167524 
L 72.713152 91.590063 
L 71.039223 94.152203 
L 69.572005 96.838068 
L 68.320591 99.631018 
L 67.292734 102.513744 
L 66.494803 105.468386 
L 65.931742 108.476636 
L 65.607041 111.519853 
L 65.522712 114.579182 
L 65.679276 117.635665 
L 66.075763 120.670364 
L 66.709718 123.664476 
L 67.577211 126.599447 
L 68.672868 129.457093 
L 69.989899 132.219706 
L 71.520144 134.870169 
L 73.254122 137.392058 
L 75.181087 139.769747 
L 77.2891 141.988504 
L 79.5651 144.034581 
L 81.994983 145.895299 
L 84.563693 147.559129 
L 87.255314 149.015761 
L 90.053168 150.25617 
L 92.939919 151.272671 
L 95.897679 152.058963 
L 98.908122 152.610176 
L 101.952594 152.922894 
L 104.4 153 
L 104.4 153 
" style="fill:none;stroke:#000000;stroke-width:3;"/>
   </g>
   <g id="line2d_4"/>
   <g id="line2d_5">
    <defs>
     <path d="M 0 5 
C 1.326016 5 2.597899 4.473168 3.535534 3.535534 
C 4.473168 2.597899 5 1.326016 5 0 
C 5 -1.326016 4.473168 -2.597899 3.535534 -3.535534 
C 2.597899 -4.473168 1.326016 -5 0 -5 
C -1.326016 -5 -2.597899 -4.473168 -3.535534 -3.535534 
C -4.473168 -2.597899 -5 -1.326016 -5 0 
C -5 1.326016 -4.473168 2.597899 -3.535534 3.535534 
C -2.597899 4.473168 -1.326016 5 0 5 
z
" id="mad31998d64" style="stroke:#000000;"/>
    </defs>
    <g clip-path="url(#p4129173174)">
     <use style="stroke:#000000;" x="104.4" xlink:href="#mad31998d64" y="153"/>
    </g>
   </g>
   <g id="line2d_6"/>
  </g>
  <g id="axes_2">
   <g id="matplotlib.axis_3"/>
   <g id="matplotlib.axis_4"/>
   <g id="text_2">
    <g clip-path="url(#pe8d2a9bbfc)">
     <!-- $\Phi_4$ -->
     <g transform="translate(245.702 94.655125)scale(0.14 -0.14)">
      <use transform="translate(0 0.09375)" xlink:href="#DejaVuSans-934"/>
      <use transform="translate(79.667969 -16.3125)scale(0.7)" xlink:href="#DejaVuSans-52"/>
     </g>
    </g>
   </g>
   <g id="text_3">
    <g clip-path="url(#pe8d2a9bbfc)">
     <!-- $\Phi_4$ -->
     <g transform="translate(370.118 94.655125)scale(0.14 -0.14)">
      <use transform="translate(0 0.09375)" xlink:href="#DejaVuSans-934"/>
      <use transform="translate(79.667969 -16.3125)scale(0.7)" xlink:href="#DejaVuSans-52"/>
     </g>
    </g>
   </g>
   <g id="line2d_7">
    <path clip-path="url(#pe8d2a9bbfc)" d="M 219.6 104.4 
L 268.2 104.4 
L 268.2 104.4 
" style="fill:none;stroke:#000000;stroke-width:3;"/>
   </g>
   <g id="line2d_8">
    <path clip-path="url(#pe8d2a9bbfc)" d="M 365.4 104.4 
L 414 104.4 
L 414 104.4 
" style="fill:none;stroke:#000000;stroke-width:3;"/>
   </g>
   <g id="line2d_9">
    <path clip-path="url(#pe8d2a9bbfc)" d="M 268.2 104.4 
L 365.4 104.4 
L 365.4 104.4 
" style="fill:none;stroke:#000000;stroke-width:3;"/>
   </g>
   <g id="line2d_10">
    <path clip-path="url(#pe8d2a9bbfc)" d="M 268.2 104.4 
L 268.321973 101.53245 
L 268.68728 98.679294 
L 269.294086 95.854852 
L 270.139347 93.073303 
L 271.218819 90.348608 
L 272.527084 87.694443 
L 274.057576 85.124131 
L 275.802611 82.650573 
L 277.753431 80.286186 
L 279.900245 78.042837 
L 282.232275 75.931787 
L 284.737816 73.963632 
L 287.404292 72.148252 
L 290.21832 70.494758 
L 293.165772 69.01145 
L 296.231856 67.705773 
L 299.401181 66.584282 
L 302.657839 65.652605 
L 305.985483 64.91542 
L 309.367409 64.376425 
L 312.786644 64.038328 
L 316.226023 63.902825 
L 319.668283 63.970595 
L 323.096147 64.2413 
L 326.492406 64.713579 
L 329.840016 65.385063 
L 333.122171 66.252382 
L 336.322398 67.31118 
L 339.424632 68.556145 
L 342.413304 69.981026 
L 345.27341 71.578673 
L 347.990595 73.341064 
L 350.55122 75.259355 
L 352.942432 77.323916 
L 355.152229 79.524385 
L 357.169518 81.849716 
L 358.984173 84.288237 
L 360.587087 86.827709 
L 361.970213 89.455383 
L 363.126609 92.158072 
L 364.05047 94.922209 
L 364.737159 97.733919 
L 365.18323 100.579089 
L 365.386442 103.443439 
L 365.4 104.4 
L 365.4 104.4 
" style="fill:none;stroke:#000000;stroke-width:3;"/>
   </g>
   <g id="line2d_11">
    <path clip-path="url(#pe8d2a9bbfc)" d="M 365.4 104.4 
L 365.278027 107.26755 
L 364.91272 110.120706 
L 364.305914 112.945148 
L 363.460653 115.726697 
L 362.381181 118.451392 
L 361.072916 121.105557 
L 359.542424 123.675869 
L 357.797389 126.149427 
L 355.846569 128.513814 
L 353.699755 130.757163 
L 351.367725 132.868213 
L 348.862184 134.836368 
L 346.195708 136.651748 
L 343.38168 138.305242 
L 340.434228 139.78855 
L 337.368144 141.094227 
L 334.198819 142.215718 
L 330.942161 143.147395 
L 327.614517 143.88458 
L 324.232591 144.423575 
L 320.813356 144.761672 
L 317.373977 144.897175 
L 313.931717 144.829405 
L 310.503853 144.5587 
L 307.107594 144.086421 
L 303.759984 143.414937 
L 300.477829 142.547618 
L 297.277602 141.48882 
L 294.175368 140.243855 
L 291.186696 138.818974 
L 288.32659 137.221327 
L 285.609405 135.458936 
L 283.04878 133.540645 
L 280.657568 131.476084 
L 278.447771 129.275615 
L 276.430482 126.950284 
L 274.615827 124.511763 
L 273.012913 121.972291 
L 271.629787 119.344617 
L 270.473391 116.641928 
L 269.54953 113.877791 
L 268.862841 111.066081 
L 268.41677 108.220911 
L 268.213558 105.356561 
L 268.2 104.4 
L 268.2 104.4 
" style="fill:none;stroke:#000000;stroke-width:3;"/>
   </g>
   <g id="line2d_12"/>
   <g id="line2d_13">
    <g clip-path="url(#pe8d2a9bbfc)">
     <use style="stroke:#000000;" x="268.2" xlink:href="#mad31998d64" y="104.4"/>
    </g>
   </g>
   <g id="line2d_14">
    <g clip-path="url(#pe8d2a9bbfc)">
     <use style="stroke:#000000;" x="365.4" xlink:href="#mad31998d64" y="104.4"/>
    </g>
   </g>
   <g id="line2d_15"/>
  </g>
  <g id="axes_3">
   <g id="matplotlib.axis_5"/>
   <g id="matplotlib.axis_6"/>
   <g id="text_4">
    <g clip-path="url(#pcd0b43a210)">
     <!-- $\Phi_4$ -->
     <g transform="translate(520.31 143.255125)scale(0.14 -0.14)">
      <use transform="translate(0 0.09375)" xlink:href="#DejaVuSans-934"/>
      <use transform="translate(79.667969 -16.3125)scale(0.7)" xlink:href="#DejaVuSans-52"/>
     </g>
    </g>
   </g>
   <g id="text_5">
    <g clip-path="url(#pcd0b43a210)">
     <!-- $\Phi_4$ -->
     <g transform="translate(520.31 78.455125)scale(0.14 -0.14)">
      <use transform="translate(0 0.09375)" xlink:href="#DejaVuSans-934"/>
      <use transform="translate(79.667969 -16.3125)scale(0.7)" xlink:href="#DejaVuSans-52"/>
     </g>
    </g>
   </g>
   <g id="line2d_16">
    <path clip-path="url(#pcd0b43a210)" d="M 432 153 
L 529.2 153 
L 529.2 153 
" style="fill:none;stroke:#000000;stroke-width:3;"/>
   </g>
   <g id="line2d_17">
    <path clip-path="url(#pcd0b43a210)" d="M 529.2 153 
L 626.4 153 
L 626.4 153 
" style="fill:none;stroke:#000000;stroke-width:3;"/>
   </g>
   <g id="line2d_18">
    <path clip-path="url(#pcd0b43a210)" d="M 529.2 153 
L 526.864444 152.878554 
L 524.546396 152.515127 
L 522.263236 151.912443 
L 520.032077 151.07502 
L 517.869648 150.009136 
L 515.792158 148.722782 
L 513.815182 147.225601 
L 511.953542 145.528817 
L 510.221191 143.64515 
L 508.631119 141.588722 
L 507.195245 139.374948 
L 505.924332 137.020425 
L 504.82791 134.542803 
L 503.914196 131.960657 
L 503.190042 129.293344 
L 502.660876 126.56086 
L 502.310608 123.529721 
L 502.200209 120.472447 
L 502.330664 117.416311 
L 502.70081 114.388576 
L 503.307343 111.41625 
L 504.066409 108.762951 
L 505.013892 106.19839 
L 506.142691 103.741794 
L 507.444342 101.411578 
L 508.909088 99.225211 
L 510.525948 97.199083 
L 512.282802 95.348384 
L 514.166477 93.686988 
L 516.162854 92.22735 
L 518.256966 90.980412 
L 520.433114 89.955521 
L 522.674985 89.160362 
L 524.965771 88.600896 
L 527.2883 88.281315 
L 529.2 88.2 
L 529.2 88.2 
" style="fill:none;stroke:#000000;stroke-width:3;"/>
   </g>
   <g id="line2d_19">
    <path clip-path="url(#pcd0b43a210)" d="M 529.2 88.2 
L 531.535556 88.321446 
L 533.853604 88.684873 
L 536.136764 89.287557 
L 538.367923 90.12498 
L 540.530352 91.190864 
L 542.607842 92.477218 
L 544.584818 93.974399 
L 546.446458 95.671183 
L 548.178809 97.55485 
L 549.768881 99.611278 
L 551.204755 101.825052 
L 552.475668 104.179575 
L 553.57209 106.657197 
L 554.485804 109.239343 
L 555.209958 111.906656 
L 555.739124 114.63914 
L 556.089392 117.670279 
L 556.199791 120.727553 
L 556.069336 123.783689 
L 555.69919 126.811424 
L 555.092657 129.78375 
L 554.333591 132.437049 
L 553.386108 135.00161 
L 552.257309 137.458206 
L 550.955658 139.788422 
L 549.490912 141.974789 
L 547.874052 144.000917 
L 546.117198 145.851616 
L 544.233523 147.513012 
L 542.237146 148.97265 
L 540.143034 150.219588 
L 537.966886 151.244479 
L 535.725015 152.039638 
L 533.434229 152.599104 
L 531.1117 152.918685 
L 529.2 153 
L 529.2 153 
" style="fill:none;stroke:#000000;stroke-width:3;"/>
   </g>
   <g id="line2d_20">
    <path clip-path="url(#pcd0b43a210)" d="M 529.2 88.2 
L 531.33856 88.082012 
L 533.45116 87.729482 
L 535.512158 87.146687 
L 537.496534 86.340703 
L 539.380201 85.321313 
L 541.140295 84.100892 
L 542.75545 82.694252 
L 544.20606 81.11847 
L 545.474516 79.392672 
L 546.545422 77.537808 
L 547.405779 75.576394 
L 548.045141 73.532238 
L 548.455749 71.430153 
L 548.632619 69.295656 
L 548.573603 67.154658 
L 548.279417 65.033145 
L 547.753633 62.956872 
L 547.002633 60.951041 
L 546.035534 59.04 
L 544.864074 57.246947 
L 543.502473 55.593646 
L 541.967259 54.100168 
L 540.277069 52.784639 
L 538.452417 51.66303 
L 536.515454 50.748955 
L 534.489691 50.05351 
L 532.399719 49.585136 
L 530.270906 49.349519 
L 528.129094 49.349519 
L 526.000281 49.585136 
L 523.910309 50.05351 
L 521.884546 50.748955 
L 519.947583 51.66303 
L 518.122931 52.784639 
L 516.432741 54.100168 
L 514.897527 55.593646 
L 513.535926 57.246947 
L 512.364466 59.04 
L 511.397367 60.951041 
L 510.646367 62.956872 
L 510.120583 65.033145 
L 509.826397 67.154658 
L 509.767381 69.295656 
L 509.944251 71.430153 
L 510.354859 73.532238 
L 510.994221 75.576394 
L 511.854578 77.537808 
L 512.925484 79.392672 
L 514.19394 81.11847 
L 515.64455 82.694252 
L 517.259705 84.100892 
L 519.019799 85.321313 
L 520.903466 86.340703 
L 522.887842 87.146687 
L 524.94884 87.729482 
L 527.06144 88.082012 
L 529.2 88.2 
L 529.2 88.2 
" style="fill:none;stroke:#000000;stroke-width:3;"/>
   </g>
   <g id="line2d_21"/>
   <g id="line2d_22"/>
   <g id="line2d_23">
    <g clip-path="url(#pcd0b43a210)">
     <use style="stroke:#000000;" x="529.2" xlink:href="#mad31998d64" y="153"/>
    </g>
   </g>
   <g id="line2d_24">
    <g clip-path="url(#pcd0b43a210)">
     <use style="stroke:#000000;" x="529.2" xlink:href="#mad31998d64" y="88.2"/>
    </g>
   </g>
  </g>
 </g>
 <defs>
  <clipPath id="p4129173174">
   <rect height="194.4" width="194.4" x="7.2" y="7.2"/>
  </clipPath>
  <clipPath id="pe8d2a9bbfc">
   <rect height="194.4" width="194.4" x="219.6" y="7.2"/>
  </clipPath>
  <clipPath id="pcd0b43a210">
   <rect height="194.4" width="194.4" x="432" y="7.2"/>
  </clipPath>
 </defs>
</svg>
