<?xml version="1.0" encoding="utf-8" standalone="no"?>
<!DOCTYPE svg PUBLIC "-//W3C//DTD SVG 1.1//EN"
  "http://www.w3.org/Graphics/SVG/1.1/DTD/svg11.dtd">
<!-- Created with matplotlib (https://matplotlib.org/) -->
<svg height="208.8pt" version="1.1" viewBox="0 0 494.803636 208.8" width="494.803636pt" xmlns="http://www.w3.org/2000/svg" xmlns:xlink="http://www.w3.org/1999/xlink">
 <metadata>
  <rdf:RDF xmlns:cc="http://creativecommons.org/ns#" xmlns:dc="http://purl.org/dc/elements/1.1/" xmlns:rdf="http://www.w3.org/1999/02/22-rdf-syntax-ns#">
   <cc:Work>
    <dc:type rdf:resource="http://purl.org/dc/dcmitype/StillImage"/>
    <dc:date>2021-05-06T00:53:15.222158</dc:date>
    <dc:format>image/svg+xml</dc:format>
    <dc:creator>
     <cc:Agent>
      <dc:title>Matplotlib v3.3.4, https://matplotlib.org/</dc:title>
     </cc:Agent>
    </dc:creator>
   </cc:Work>
  </rdf:RDF>
 </metadata>
 <defs>
  <style type="text/css">*{stroke-linecap:butt;stroke-linejoin:round;}</style>
 </defs>
 <g id="figure_1">
  <g id="patch_1">
   <path d="M 0 208.8 
L 494.803636 208.8 
L 494.803636 0 
L 0 0 
z
" style="fill:none;"/>
  </g>
  <g id="axes_1">
   <g id="matplotlib.axis_1"/>
   <g id="matplotlib.axis_2"/>
   <g id="text_1">
    <g clip-path="url(#p99f14ebac7)">
     <!-- $\Phi_3$ -->
     <g transform="translate(81.902 143.255125)scale(0.14 -0.14)">
      <defs>
       <path d="M 34.46875 56.9375 
Q 27.15625 55.90625 22.359375 51.65625 
Q 16.015625 46.046875 16.015625 36.375 
Q 16.015625 26.765625 22.359375 21.140625 
Q 27.15625 16.890625 34.46875 15.875 
z
M 44.34375 15.875 
Q 51.65625 16.890625 56.453125 21.140625 
Q 62.703125 26.765625 62.703125 36.375 
Q 62.703125 46.046875 56.453125 51.65625 
Q 51.65625 55.90625 44.34375 56.9375 
z
M 34.46875 7.71875 
Q 22.5625 8.796875 14.84375 15.328125 
Q 5.609375 23.140625 5.609375 36.375 
Q 5.609375 49.609375 14.84375 57.46875 
Q 22.515625 64.0625 34.46875 65.140625 
L 34.46875 72.90625 
L 44.34375 72.90625 
L 44.34375 65.140625 
Q 56.25 64.015625 63.921875 57.46875 
Q 73.09375 49.609375 73.09375 36.375 
Q 73.09375 23.1875 63.921875 15.328125 
Q 56.25 8.796875 44.34375 7.671875 
L 44.34375 0 
L 34.46875 0 
z
" id="DejaVuSans-934"/>
       <path d="M 40.578125 39.3125 
Q 47.65625 37.796875 51.625 33 
Q 55.609375 28.21875 55.609375 21.1875 
Q 55.609375 10.40625 48.1875 4.484375 
Q 40.765625 -1.421875 27.09375 -1.421875 
Q 22.515625 -1.421875 17.65625 -0.515625 
Q 12.796875 0.390625 7.625 2.203125 
L 7.625 11.71875 
Q 11.71875 9.328125 16.59375 8.109375 
Q 21.484375 6.890625 26.8125 6.890625 
Q 36.078125 6.890625 40.9375 10.546875 
Q 45.796875 14.203125 45.796875 21.1875 
Q 45.796875 27.640625 41.28125 31.265625 
Q 36.765625 34.90625 28.71875 34.90625 
L 20.21875 34.90625 
L 20.21875 43.015625 
L 29.109375 43.015625 
Q 36.375 43.015625 40.234375 45.921875 
Q 44.09375 48.828125 44.09375 54.296875 
Q 44.09375 59.90625 40.109375 62.90625 
Q 36.140625 65.921875 28.71875 65.921875 
Q 24.65625 65.921875 20.015625 65.03125 
Q 15.375 64.15625 9.8125 62.3125 
L 9.8125 71.09375 
Q 15.4375 72.65625 20.34375 73.4375 
Q 25.25 74.21875 29.59375 74.21875 
Q 40.828125 74.21875 47.359375 69.109375 
Q 53.90625 64.015625 53.90625 55.328125 
Q 53.90625 49.265625 50.4375 45.09375 
Q 46.96875 40.921875 40.578125 39.3125 
z
" id="DejaVuSans-51"/>
      </defs>
      <use transform="translate(0 0.09375)" xlink:href="#DejaVuSans-934"/>
      <use transform="translate(79.667969 -16.3125)scale(0.7)" xlink:href="#DejaVuSans-51"/>
     </g>
    </g>
   </g>
   <g id="text_2">
    <g clip-path="url(#p99f14ebac7)">
     <!-- $\Phi_3$ -->
     <g transform="translate(81.902 94.655125)scale(0.14 -0.14)">
      <use transform="translate(0 0.09375)" xlink:href="#DejaVuSans-934"/>
      <use transform="translate(79.667969 -16.3125)scale(0.7)" xlink:href="#DejaVuSans-51"/>
     </g>
    </g>
   </g>
   <g id="line2d_1">
    <path clip-path="url(#p99f14ebac7)" d="M 7.2 153 
L 104.4 153 
L 104.4 153 
" style="fill:none;stroke:#000000;stroke-width:3;"/>
   </g>
   <g id="line2d_2">
    <path clip-path="url(#p99f14ebac7)" d="M 104.4 153 
L 201.6 153 
L 201.6 153 
" style="fill:none;stroke:#000000;stroke-width:3;"/>
   </g>
   <g id="line2d_3">
    <path clip-path="url(#p99f14ebac7)" d="M 104.4 153 
L 104.4 104.4 
L 104.4 104.4 
" style="fill:none;stroke:#000000;stroke-width:3;"/>
   </g>
   <g id="line2d_4">
    <path clip-path="url(#p99f14ebac7)" d="M 104.4 104.4 
L 107.458119 104.279545 
L 110.497289 103.918925 
L 113.498679 103.320376 
L 116.443692 102.487606 
L 119.314078 101.425775 
L 122.092053 100.141463 
L 124.760403 98.642627 
L 127.302595 96.938554 
L 129.702876 95.039804 
L 131.946375 92.958142 
L 134.019189 90.706466 
L 135.908474 88.298728 
L 137.602525 85.749847 
L 139.090845 83.075617 
L 140.364211 80.292608 
L 141.414733 77.418063 
L 142.235903 74.469796 
L 142.822632 71.466072 
L 143.171284 68.425506 
L 143.279699 65.366936 
L 143.147205 62.309315 
L 142.774624 59.271588 
L 142.164263 56.272578 
L 141.319906 53.330867 
L 140.246783 50.464683 
L 138.951544 47.691786 
L 137.442215 45.029357 
L 135.728147 42.493893 
L 133.819963 40.101106 
L 131.729484 37.86582 
L 129.469665 35.801886 
L 127.054508 33.922094 
L 124.498978 32.238091 
L 121.818909 30.760311 
L 119.030908 29.497911 
L 116.152251 28.458713 
L 113.200773 27.649156 
L 110.194763 27.074257 
L 107.152848 26.737578 
L 104.093875 26.641205 
L 101.036799 26.785735 
L 98.000562 27.170273 
L 95.003978 27.792435 
L 92.065614 28.648367 
L 89.203677 29.732765 
L 86.435901 31.03891 
L 83.779434 32.558709 
L 81.250738 34.282745 
L 78.865481 36.200335 
L 76.638443 38.299597 
L 74.583422 40.567524 
L 72.713152 42.990063 
L 71.039223 45.552203 
L 69.572005 48.238068 
L 68.320591 51.031018 
L 67.292734 53.913744 
L 66.494803 56.868386 
L 65.931742 59.876636 
L 65.607041 62.919853 
L 65.522712 65.979182 
L 65.679276 69.035665 
L 66.075763 72.070364 
L 66.709718 75.064476 
L 67.577211 77.999447 
L 68.672868 80.857093 
L 69.989899 83.619706 
L 71.520144 86.270169 
L 73.254122 88.792058 
L 75.181087 91.169747 
L 77.2891 93.388504 
L 79.5651 95.434581 
L 81.994983 97.295299 
L 84.563693 98.959129 
L 87.255314 100.415761 
L 90.053168 101.65617 
L 92.939919 102.672671 
L 95.897679 103.458963 
L 98.908122 104.010176 
L 101.952594 104.322894 
L 104.4 104.4 
L 104.4 104.4 
" style="fill:none;stroke:#000000;stroke-width:3;"/>
   </g>
   <g id="line2d_5"/>
   <g id="line2d_6">
    <defs>
     <path d="M 0 5 
C 1.326016 5 2.597899 4.473168 3.535534 3.535534 
C 4.473168 2.597899 5 1.326016 5 0 
C 5 -1.326016 4.473168 -2.597899 3.535534 -3.535534 
C 2.597899 -4.473168 1.326016 -5 0 -5 
C -1.326016 -5 -2.597899 -4.473168 -3.535534 -3.535534 
C -4.473168 -2.597899 -5 -1.326016 -5 0 
C -5 1.326016 -4.473168 2.597899 -3.535534 3.535534 
C -2.597899 4.473168 -1.326016 5 0 5 
z
" id="mbf8972b519" style="stroke:#000000;"/>
    </defs>
    <g clip-path="url(#p99f14ebac7)">
     <use style="stroke:#000000;" x="104.4" xlink:href="#mbf8972b519" y="153"/>
    </g>
   </g>
   <g id="line2d_7">
    <g clip-path="url(#p99f14ebac7)">
     <use style="stroke:#000000;" x="104.4" xlink:href="#mbf8972b519" y="104.4"/>
    </g>
   </g>
   <g id="line2d_8"/>
  </g>
  <g id="axes_2">
   <g id="matplotlib.axis_3"/>
   <g id="matplotlib.axis_4"/>
   <g id="text_3">
    <g clip-path="url(#pbdac79e51c)">
     <!-- $\Phi_3$ -->
     <g transform="translate(319.305636 94.655125)scale(0.14 -0.14)">
      <use transform="translate(0 0.09375)" xlink:href="#DejaVuSans-934"/>
      <use transform="translate(79.667969 -16.3125)scale(0.7)" xlink:href="#DejaVuSans-51"/>
     </g>
    </g>
   </g>
   <g id="text_4">
    <g clip-path="url(#pbdac79e51c)">
     <!-- $\Phi_3$ -->
     <g transform="translate(443.721636 94.655125)scale(0.14 -0.14)">
      <use transform="translate(0 0.09375)" xlink:href="#DejaVuSans-934"/>
      <use transform="translate(79.667969 -16.3125)scale(0.7)" xlink:href="#DejaVuSans-51"/>
     </g>
    </g>
   </g>
   <g id="line2d_9">
    <path clip-path="url(#pbdac79e51c)" d="M 293.203636 104.4 
L 341.803636 104.4 
L 341.803636 104.4 
" style="fill:none;stroke:#000000;stroke-width:3;"/>
   </g>
   <g id="line2d_10">
    <path clip-path="url(#pbdac79e51c)" d="M 439.003636 104.4 
L 487.603636 104.4 
L 487.603636 104.4 
" style="fill:none;stroke:#000000;stroke-width:3;"/>
   </g>
   <g id="line2d_11">
    <path clip-path="url(#pbdac79e51c)" d="M 341.803636 104.4 
L 341.925609 101.53245 
L 342.290916 98.679294 
L 342.897722 95.854852 
L 343.742983 93.073303 
L 344.822455 90.348608 
L 346.130721 87.694443 
L 347.661212 85.124131 
L 349.406248 82.650573 
L 351.357068 80.286186 
L 353.503881 78.042837 
L 355.835911 75.931787 
L 358.341452 73.963632 
L 361.007929 72.148252 
L 363.821956 70.494758 
L 366.769409 69.01145 
L 369.835493 67.705773 
L 373.004818 66.584282 
L 376.261475 65.652605 
L 379.589119 64.91542 
L 382.971046 64.376425 
L 386.39028 64.038328 
L 389.829659 63.902825 
L 393.27192 63.970595 
L 396.699783 64.2413 
L 400.096043 64.713579 
L 403.443652 65.385063 
L 406.725807 66.252382 
L 409.926034 67.31118 
L 413.028269 68.556145 
L 416.01694 69.981026 
L 418.877046 71.578673 
L 421.594232 73.341064 
L 424.154857 75.259355 
L 426.546069 77.323916 
L 428.755865 79.524385 
L 430.773154 81.849716 
L 432.58781 84.288237 
L 434.190723 86.827709 
L 435.573849 89.455383 
L 436.730245 92.158072 
L 437.654106 94.922209 
L 438.340796 97.733919 
L 438.786866 100.579089 
L 438.990079 103.443439 
L 439.003636 104.4 
L 439.003636 104.4 
" style="fill:none;stroke:#000000;stroke-width:3;"/>
   </g>
   <g id="line2d_12">
    <path clip-path="url(#pbdac79e51c)" d="M 439.003636 104.4 
L 438.881663 107.26755 
L 438.516357 110.120706 
L 437.90955 112.945148 
L 437.064289 115.726697 
L 435.984817 118.451392 
L 434.676552 121.105557 
L 433.146061 123.675869 
L 431.401025 126.149427 
L 429.450205 128.513814 
L 427.303392 130.757163 
L 424.971362 132.868213 
L 422.46582 134.836368 
L 419.799344 136.651748 
L 416.985317 138.305242 
L 414.037864 139.78855 
L 410.97178 141.094227 
L 407.802455 142.215718 
L 404.545797 143.147395 
L 401.218154 143.88458 
L 397.836227 144.423575 
L 394.416993 144.761672 
L 390.977613 144.897175 
L 387.535353 144.829405 
L 384.10749 144.5587 
L 380.71123 144.086421 
L 377.363621 143.414937 
L 374.081465 142.547618 
L 370.881239 141.48882 
L 367.779004 140.243855 
L 364.790333 138.818974 
L 361.930226 137.221327 
L 359.213041 135.458936 
L 356.652416 133.540645 
L 354.261204 131.476084 
L 352.051408 129.275615 
L 350.034119 126.950284 
L 348.219463 124.511763 
L 346.616549 121.972291 
L 345.233423 119.344617 
L 344.077027 116.641928 
L 343.153166 113.877791 
L 342.466477 111.066081 
L 342.020407 108.220911 
L 341.817194 105.356561 
L 341.803636 104.4 
L 341.803636 104.4 
" style="fill:none;stroke:#000000;stroke-width:3;"/>
   </g>
   <g id="line2d_13"/>
   <g id="line2d_14">
    <g clip-path="url(#pbdac79e51c)">
     <use style="stroke:#000000;" x="341.803636" xlink:href="#mbf8972b519" y="104.4"/>
    </g>
   </g>
   <g id="line2d_15">
    <g clip-path="url(#pbdac79e51c)">
     <use style="stroke:#000000;" x="439.003636" xlink:href="#mbf8972b519" y="104.4"/>
    </g>
   </g>
   <g id="line2d_16"/>
  </g>
 </g>
 <defs>
  <clipPath id="p99f14ebac7">
   <rect height="194.4" width="194.4" x="7.2" y="7.2"/>
  </clipPath>
  <clipPath id="pbdac79e51c">
   <rect height="194.4" width="194.4" x="293.203636" y="7.2"/>
  </clipPath>
 </defs>
</svg>
