<?xml version="1.0" encoding="UTF-8" standalone="no"?>
<svg
   xmlns:dc="http://purl.org/dc/elements/1.1/"
   xmlns:cc="http://creativecommons.org/ns#"
   xmlns:rdf="http://www.w3.org/1999/02/22-rdf-syntax-ns#"
   xmlns:svg="http://www.w3.org/2000/svg"
   xmlns="http://www.w3.org/2000/svg"
   xmlns:sodipodi="http://sodipodi.sourceforge.net/DTD/sodipodi-0.dtd"
   xmlns:inkscape="http://www.inkscape.org/namespaces/inkscape"
   version="1.1"
   id="svg2"
   xml:space="preserve"
   width="1122.5197"
   height="793.70081"
   viewBox="0 0 1122.5197 793.70081"
   sodipodi:docname="flow-2.svg"
   inkscape:version="1.0.2 (e86c870879, 2021-01-15)"><sodipodi:namedview
     pagecolor="#ffffff"
     bordercolor="#666666"
     borderopacity="1"
     objecttolerance="10"
     gridtolerance="10"
     guidetolerance="10"
     inkscape:pageopacity="0"
     inkscape:pageshadow="2"
     inkscape:window-width="1920"
     inkscape:window-height="1136"
     id="namedview153"
     showgrid="false"
     inkscape:zoom="1.2296825"
     inkscape:cx="666.29244"
     inkscape:cy="396.8504"
     inkscape:window-x="0"
     inkscape:window-y="27"
     inkscape:window-maximized="1"
     inkscape:current-layer="g14" /><metadata
     id="metadata8"><rdf:RDF><cc:Work
         rdf:about=""><dc:format>image/svg+xml</dc:format><dc:type
           rdf:resource="http://purl.org/dc/dcmitype/StillImage" /><dc:title /></cc:Work></rdf:RDF></metadata><defs
     id="defs6"><clipPath
       clipPathUnits="userSpaceOnUse"
       id="clipPath18"><path
         d="M 0,0.028 H 841.861 V 595.275 H 0 Z"
         clip-rule="evenodd"
         id="path16" /></clipPath><clipPath
       clipPathUnits="userSpaceOnUse"
       id="clipPath182"><path
         d="M 545.669,333.014 H 758.324 V 545.67 H 545.669 Z"
         id="path180" /></clipPath><clipPath
       clipPathUnits="userSpaceOnUse"
       id="clipPath252"><path
         d="M 531.496,84.982 H 772.498 V 262.205 H 531.496 Z"
         id="path250" /></clipPath></defs><g
     id="g10"
     transform="matrix(1.3333333,0,0,-1.3333333,0,793.70079)"><g
       id="g12"><g
         id="g14"
         clip-path="url(#clipPath18)"><path
           d="M 0,595.275 H 841.861 V 0.028 L 0,0.028 Z"
           style="fill:#ffffff;fill-opacity:1;fill-rule:evenodd;stroke:none"
           id="path20" /><path
           d="M 219.685,524.409 V 496.913"
           style="fill:none;stroke:#3465a4;stroke-width:1.30000003;stroke-linecap:butt;stroke-linejoin:miter;stroke-miterlimit:10;stroke-dasharray:none;stroke-opacity:1"
           id="path22" /><path
           d="m 223.937,497.48 -4.252,-8.504 -4.252,8.504 z"
           style="fill:#3465a4;fill-opacity:1;fill-rule:evenodd;stroke:none"
           id="path24" /><path
           d="m 219.685,446.456 v -14.23 H 432.312 V 559.87 h 219.657 v -6.264"
           style="fill:none;stroke:#3465a4;stroke-width:1.29975003;stroke-linecap:butt;stroke-linejoin:miter;stroke-miterlimit:10;stroke-dasharray:none;stroke-opacity:1"
           id="path26" /><path
           d="m 656.22,554.173 -4.251,-8.504 -4.252,8.504 z"
           style="fill:#3465a4;fill-opacity:1;fill-rule:evenodd;stroke:none"
           id="path28" /><path
           d="m 166.535,269.291 67.352,-38.977 -67.352,-39.004 -67.322,39.004 67.322,38.977 z"
           style="fill:#729fcf;fill-opacity:1;fill-rule:evenodd;stroke:none"
           id="path30" /><g
           id="g32"><path
             d="m 166.535,269.291 67.352,-38.977 -67.352,-39.004 -67.322,39.004 67.322,38.977 z"
             style="fill:none;stroke:#3465a4;stroke-width:0.75;stroke-linecap:butt;stroke-linejoin:round;stroke-miterlimit:10;stroke-dasharray:none;stroke-opacity:1"
             id="path34" /></g><g
           id="g36"><text
             transform="matrix(1,0,0,-1,149.613,244.176)"
             style="font-variant:normal;font-weight:normal;font-size:18px;font-family:'Liberation Sans';-inkscape-font-specification:LiberationSans;writing-mode:lr-tb;fill:#000000;fill-opacity:1;fill-rule:nonzero;stroke:none"
             id="text40"><tspan
               x="0 9.8999996 19.908001 28.908001"
               y="0"
               id="tspan38">Last</tspan></text></g><g
           id="g42"><text
             transform="matrix(1,0,0,-1,119.112,224.078)"
             style="font-variant:normal;font-weight:normal;font-size:18px;font-family:'Liberation Sans';-inkscape-font-specification:LiberationSans;writing-mode:lr-tb;fill:#000000;fill-opacity:1;fill-rule:nonzero;stroke:none"
             id="text46"><tspan
               x="0 10.008 20.016001 25.002001 35.009998 41.004002 55.998001 65.898003 70.973999 74.879997 84.888"
               y="0"
               id="tspan44">deformation</tspan></text></g><g
           id="g48"><text
             transform="matrix(1,0,0,-1,161.603,203.867)"
             style="font-variant:normal;font-weight:normal;font-size:18px;font-family:'Liberation Sans';-inkscape-font-specification:LiberationSans;writing-mode:lr-tb;fill:#000000;fill-opacity:1;fill-rule:nonzero;stroke:none"
             id="text52"><tspan
               x="0"
               y="0"
               id="tspan50">?</tspan></text></g><path
           d="m 244.488,205.511 67.351,-38.976 -67.351,-39.005 -67.323,39.005 67.323,38.976 z"
           style="fill:#729fcf;fill-opacity:1;fill-rule:evenodd;stroke:none"
           id="path54" /><g
           id="g56"><path
             d="m 244.488,205.511 67.351,-38.976 -67.351,-39.005 -67.323,39.005 67.323,38.976 z"
             style="fill:none;stroke:#3465a4;stroke-width:0.75;stroke-linecap:butt;stroke-linejoin:round;stroke-miterlimit:10;stroke-dasharray:none;stroke-opacity:1"
             id="path58" /></g><g
           id="g60"><text
             transform="matrix(1,0,0,-1,227.509,180.368)"
             style="font-variant:normal;font-weight:normal;font-size:18px;font-family:'Liberation Sans';-inkscape-font-specification:LiberationSans;writing-mode:lr-tb;fill:#000000;fill-opacity:1;fill-rule:nonzero;stroke:none"
             id="text64"><tspan
               x="0 10.008 19.908001 28.908001"
               y="0"
               id="tspan62">Last</tspan></text></g><g
           id="g66"><text
             transform="matrix(1,0,0,-1,209.594,160.27)"
             style="font-variant:normal;font-weight:normal;font-size:18px;font-family:'Liberation Sans';-inkscape-font-specification:LiberationSans;writing-mode:lr-tb;fill:#000000;fill-opacity:1;fill-rule:nonzero;stroke:none"
             id="text70"><tspan
               x="0 9.8999996 15.894 25.902 34.902 43.902 53.91 59.813999"
               y="0"
               id="tspan68">pressure</tspan></text></g><g
           id="g72"><text
             transform="matrix(1,0,0,-1,239.499,140.088)"
             style="font-variant:normal;font-weight:normal;font-size:18px;font-family:'Liberation Sans';-inkscape-font-specification:LiberationSans;writing-mode:lr-tb;fill:#000000;fill-opacity:1;fill-rule:nonzero;stroke:none"
             id="text76"><tspan
               x="0"
               y="0"
               id="tspan74">?</tspan></text></g><path
           d="m 262.233,545.64 c 0,-3.713 -1.956,-7.398 -5.698,-10.63 -3.741,-3.231 -9.099,-5.924 -15.562,-7.766 -6.463,-1.871 -13.804,-2.863 -21.26,-2.863 -7.483,0 -14.825,0.992 -21.288,2.863 -6.463,1.842 -11.82,4.535 -15.562,7.766 -3.742,3.232 -5.698,6.917 -5.698,10.63 0,3.742 1.956,7.427 5.698,10.659 3.742,3.231 9.099,5.924 15.562,7.767 6.463,1.87 13.805,2.863 21.26,2.863 7.484,0 14.825,-0.993 21.288,-2.863 6.463,-1.843 11.821,-4.536 15.562,-7.767 3.742,-3.232 5.698,-6.917 5.698,-10.63 z"
           style="fill:#729fcf;fill-opacity:1;fill-rule:evenodd;stroke:none"
           id="path78" /><g
           id="g80"><path
             d="m 262.233,545.64 c 0,-3.713 -1.956,-7.398 -5.698,-10.63 -3.741,-3.231 -9.099,-5.924 -15.562,-7.766 -6.463,-1.871 -13.804,-2.863 -21.26,-2.863 -7.483,0 -14.825,0.992 -21.288,2.863 -6.463,1.842 -11.82,4.535 -15.562,7.766 -3.742,3.232 -5.698,6.917 -5.698,10.63 0,3.742 1.956,7.427 5.698,10.659 3.742,3.231 9.099,5.924 15.562,7.767 6.463,1.87 13.805,2.863 21.26,2.863 7.484,0 14.825,-0.993 21.288,-2.863 6.463,-1.843 11.821,-4.536 15.562,-7.767 3.742,-3.232 5.698,-6.917 5.698,-10.63 z"
             style="fill:none;stroke:#3465a4;stroke-width:0.75;stroke-linecap:butt;stroke-linejoin:round;stroke-miterlimit:10;stroke-dasharray:none;stroke-opacity:1"
             id="path82" /></g><g
           id="g84"><text
             transform="matrix(1,0,0,-1,190.998,539.376)"
             style="font-variant:normal;font-weight:normal;font-size:18px;font-family:'Liberation Sans';-inkscape-font-specification:LiberationSans;writing-mode:lr-tb;fill:#000000;fill-opacity:1;fill-rule:nonzero;stroke:none"
             id="text88"><tspan
               x="0 11.988 21.582001 33.57 46.278"
               y="0"
               id="tspan86">START</tspan></text></g><path
           d="m 170.107,70.837 c 0,-3.713 -1.956,-7.398 -5.698,-10.63 -3.741,-3.231 -9.099,-5.924 -15.562,-7.767 -6.463,-1.871 -13.804,-2.863 -21.26,-2.863 -7.483,0 -14.825,0.992 -21.288,2.863 -6.463,1.843 -11.82,4.536 -15.562,7.767 -3.742,3.232 -5.698,6.917 -5.698,10.63 0,3.742 1.956,7.427 5.698,10.658 3.742,3.232 9.099,5.925 15.562,7.767 6.463,1.871 13.805,2.863 21.288,2.863 7.456,0 14.797,-0.992 21.26,-2.863 6.463,-1.842 11.821,-4.535 15.562,-7.767 3.742,-3.231 5.698,-6.916 5.698,-10.658 z"
           style="fill:#729fcf;fill-opacity:1;fill-rule:evenodd;stroke:none"
           id="path90" /><g
           id="g92"><path
             d="m 170.107,70.837 c 0,-3.713 -1.956,-7.398 -5.698,-10.63 -3.741,-3.231 -9.099,-5.924 -15.562,-7.767 -6.463,-1.871 -13.804,-2.863 -21.26,-2.863 -7.483,0 -14.825,0.992 -21.288,2.863 -6.463,1.843 -11.82,4.536 -15.562,7.767 -3.742,3.232 -5.698,6.917 -5.698,10.63 0,3.742 1.956,7.427 5.698,10.658 3.742,3.232 9.099,5.925 15.562,7.767 6.463,1.871 13.805,2.863 21.288,2.863 7.456,0 14.797,-0.992 21.26,-2.863 6.463,-1.842 11.821,-4.535 15.562,-7.767 3.742,-3.231 5.698,-6.916 5.698,-10.658 z"
             style="fill:none;stroke:#3465a4;stroke-width:0.75;stroke-linecap:butt;stroke-linejoin:round;stroke-miterlimit:10;stroke-dasharray:none;stroke-opacity:1"
             id="path94" /></g><g
           id="g96"><text
             transform="matrix(1,0,0,-1,108.595,64.573)"
             style="font-variant:normal;font-weight:normal;font-size:18px;font-family:'Liberation Sans';-inkscape-font-specification:LiberationSans;writing-mode:lr-tb;fill:#000000;fill-opacity:1;fill-rule:nonzero;stroke:none"
             id="text100"><tspan
               x="0 11.988 24.983999"
               y="0"
               id="tspan98">END</tspan></text></g><path
           d="m 127.559,488.976 v 0 c -1.247,0 -2.466,-0.34 -3.543,-0.964 -1.077,-0.595 -1.985,-1.502 -2.58,-2.58 -0.623,-1.077 -0.964,-2.296 -0.964,-3.543 v -28.346 -0.029 c 0,-1.247 0.341,-2.466 0.964,-3.543 0.595,-1.077 1.503,-1.984 2.58,-2.579 1.077,-0.624 2.296,-0.964 3.543,-0.964 h 184.252 0.028 c 1.248,0 2.467,0.34 3.544,0.964 1.077,0.595 1.984,1.502 2.579,2.579 0.624,1.077 0.964,2.296 0.964,3.543 v 28.375 0 0 c 0,1.247 -0.34,2.466 -0.964,3.543 -0.595,1.078 -1.502,1.985 -2.579,2.58 -1.077,0.624 -2.296,0.964 -3.544,0.964 z"
           style="fill:#729fcf;fill-opacity:1;fill-rule:evenodd;stroke:none"
           id="path102" /><g
           id="g104"><path
             d="m 127.559,488.976 v 0 c -1.247,0 -2.466,-0.34 -3.543,-0.964 -1.077,-0.595 -1.985,-1.502 -2.58,-2.58 -0.623,-1.077 -0.964,-2.296 -0.964,-3.543 v -28.346 -0.029 c 0,-1.247 0.341,-2.466 0.964,-3.543 0.595,-1.077 1.503,-1.984 2.58,-2.579 1.077,-0.624 2.296,-0.964 3.543,-0.964 h 184.252 0.028 c 1.248,0 2.467,0.34 3.544,0.964 1.077,0.595 1.984,1.502 2.579,2.579 0.624,1.077 0.964,2.296 0.964,3.543 v 28.375 0 0 c 0,1.247 -0.34,2.466 -0.964,3.543 -0.595,1.078 -1.502,1.985 -2.579,2.58 -1.077,0.624 -2.296,0.964 -3.544,0.964 z"
             style="fill:none;stroke:#3465a4;stroke-width:0.75;stroke-linecap:butt;stroke-linejoin:round;stroke-miterlimit:10;stroke-dasharray:none;stroke-opacity:1"
             id="path106" /></g><g
           id="g108"><text
             transform="matrix(1,0,0,-1,157.294,461.48)"
             style="font-variant:normal;font-weight:normal;font-size:18px;font-family:'Liberation Sans';-inkscape-font-specification:LiberationSans;writing-mode:lr-tb;fill:#000000;fill-opacity:1;fill-rule:nonzero;stroke:none"
             id="text112"><tspan
               x="0 11.988 21.996 25.902 35.91 44.91 49.896 54.972 64.872002 70.865997 80.874001 89.874001 98.874001 108.774 114.768"
               y="0"
               id="tspan110">Select pressure</tspan></text></g><path
           d="m 142.894,396.85 h 0.029 c -1.446,0 -2.892,-0.369 -4.139,-1.106 -1.247,-0.737 -2.296,-1.786 -3.033,-3.033 -0.737,-1.247 -1.105,-2.693 -1.105,-4.138 v -33.081 0 c 0,-1.445 0.368,-2.891 1.105,-4.138 0.737,-1.248 1.786,-2.296 3.033,-3.033 1.247,-0.737 2.693,-1.106 4.139,-1.106 h 153.553 v 0 c 1.445,0 2.891,0.369 4.138,1.106 1.247,0.737 2.296,1.785 3.033,3.033 0.737,1.247 1.106,2.693 1.106,4.138 v 33.109 -0.028 0 c 0,1.445 -0.369,2.891 -1.106,4.138 -0.737,1.247 -1.786,2.296 -3.033,3.033 -1.247,0.737 -2.693,1.106 -4.138,1.106 z"
           style="fill:#729fcf;fill-opacity:1;fill-rule:evenodd;stroke:none"
           id="path114" /><g
           id="g116"><path
             d="m 142.894,396.85 h 0.029 c -1.446,0 -2.892,-0.369 -4.139,-1.106 -1.247,-0.737 -2.296,-1.786 -3.033,-3.033 -0.737,-1.247 -1.105,-2.693 -1.105,-4.138 v -33.081 0 c 0,-1.445 0.368,-2.891 1.105,-4.138 0.737,-1.248 1.786,-2.296 3.033,-3.033 1.247,-0.737 2.693,-1.106 4.139,-1.106 h 153.553 v 0 c 1.445,0 2.891,0.369 4.138,1.106 1.247,0.737 2.296,1.785 3.033,3.033 0.737,1.247 1.106,2.693 1.106,4.138 v 33.109 -0.028 0 c 0,1.445 -0.369,2.891 -1.106,4.138 -0.737,1.247 -1.786,2.296 -3.033,3.033 -1.247,0.737 -2.693,1.106 -4.138,1.106 z"
             style="fill:none;stroke:#3465a4;stroke-width:0.75;stroke-linecap:butt;stroke-linejoin:round;stroke-miterlimit:10;stroke-dasharray:none;stroke-opacity:1"
             id="path118" /></g><g
           id="g120"><text
             transform="matrix(1,0,0,-1,144.794,365.782)"
             style="font-variant:normal;font-weight:normal;font-size:18px;font-family:'Liberation Sans';-inkscape-font-specification:LiberationSans;writing-mode:lr-tb;fill:#000000;fill-opacity:1;fill-rule:nonzero;stroke:none"
             id="text124"><tspan
               x="0 11.988 21.996 25.902 35.91 44.91 49.896 54.972 64.872002 74.879997 79.865997 89.874001 95.867996 110.862 120.87 125.856 129.76199 139.77"
               y="0"
               id="tspan122">Select deformation</tspan></text></g><path
           d="M 651.969,333.07 V 318.84 H 425.225 v 92.211 h -205.54 v -6.264"
           style="fill:none;stroke:#3465a4;stroke-width:1.29975003;stroke-linecap:butt;stroke-linejoin:miter;stroke-miterlimit:10;stroke-dasharray:none;stroke-opacity:1"
           id="path126" /><path
           d="m 223.937,405.354 -4.252,-8.504 -4.252,8.504 z"
           style="fill:#3465a4;fill-opacity:1;fill-rule:evenodd;stroke:none"
           id="path128" /><path
           d="M 219.685,347.244 V 304.695 H 651.969 V 270.141"
           style="fill:none;stroke:#3465a4;stroke-width:1.29975003;stroke-linecap:butt;stroke-linejoin:miter;stroke-miterlimit:10;stroke-dasharray:none;stroke-opacity:1"
           id="path130" /><path
           d="m 656.22,270.708 -4.251,-8.504 -4.252,8.504 z"
           style="fill:#3465a4;fill-opacity:1;fill-rule:evenodd;stroke:none"
           id="path132" /><path
           d="M 651.969,85.039 V 70.809 H 492.52 V 283.492 H 166.535 v -6.264"
           style="fill:none;stroke:#3465a4;stroke-width:1.29975003;stroke-linecap:butt;stroke-linejoin:miter;stroke-miterlimit:10;stroke-dasharray:none;stroke-opacity:1"
           id="path134" /><path
           d="m 170.787,277.795 -4.252,-8.504 -4.252,8.504 z"
           style="fill:#3465a4;fill-opacity:1;fill-rule:evenodd;stroke:none"
           id="path136" /><path
           d="M 99.213,230.314 H 85.011 v 180.737 h 134.674 v -6.264"
           style="fill:none;stroke:#3465a4;stroke-width:1.30000003;stroke-linecap:butt;stroke-linejoin:miter;stroke-miterlimit:10;stroke-dasharray:none;stroke-opacity:1"
           id="path138" /><path
           d="m 223.937,405.354 -4.252,-8.504 -4.252,8.504 z"
           style="fill:#3465a4;fill-opacity:1;fill-rule:evenodd;stroke:none"
           id="path140" /><path
           d="m 301.181,134.645 v 0 c -1.871,0 -3.685,-0.482 -5.301,-1.417 -1.615,-0.936 -2.976,-2.296 -3.911,-3.912 -0.936,-1.616 -1.418,-3.43 -1.418,-5.301 v -42.52 -0.028 c 0,-1.871 0.482,-3.685 1.418,-5.301 0.935,-1.615 2.296,-2.976 3.911,-3.911 1.616,-0.936 3.43,-1.418 5.301,-1.418 h 170.079 0.028 c 1.871,0 3.685,0.482 5.301,1.418 1.616,0.935 2.976,2.296 3.912,3.911 0.935,1.616 1.417,3.43 1.417,5.301 v 42.548 0 0 c 0,1.871 -0.482,3.685 -1.417,5.301 -0.936,1.616 -2.296,2.976 -3.912,3.912 -1.616,0.935 -3.43,1.417 -5.301,1.417 z"
           style="fill:#729fcf;fill-opacity:1;fill-rule:evenodd;stroke:none"
           id="path142" /><g
           id="g144"><path
             d="m 301.181,134.645 v 0 c -1.871,0 -3.685,-0.482 -5.301,-1.417 -1.615,-0.936 -2.976,-2.296 -3.911,-3.912 -0.936,-1.616 -1.418,-3.43 -1.418,-5.301 v -42.52 -0.028 c 0,-1.871 0.482,-3.685 1.418,-5.301 0.935,-1.615 2.296,-2.976 3.911,-3.911 1.616,-0.936 3.43,-1.418 5.301,-1.418 h 170.079 0.028 c 1.871,0 3.685,0.482 5.301,1.418 1.616,0.935 2.976,2.296 3.912,3.911 0.935,1.616 1.417,3.43 1.417,5.301 v 42.548 0 0 c 0,1.871 -0.482,3.685 -1.417,5.301 -0.936,1.616 -2.296,2.976 -3.912,3.912 -1.616,0.935 -3.43,1.417 -5.301,1.417 z"
             style="fill:none;stroke:#3465a4;stroke-width:0.75;stroke-linecap:butt;stroke-linejoin:round;stroke-miterlimit:10;stroke-dasharray:none;stroke-opacity:1"
             id="path146" /></g><g
           id="g148"><text
             transform="matrix(1,0,0,-1,325.389,106.582)"
             style="font-variant:normal;font-weight:normal;font-size:18px;font-family:'Liberation Sans';-inkscape-font-specification:LiberationSans;writing-mode:lr-tb;fill:#000000;fill-opacity:1;fill-rule:nonzero;stroke:none"
             id="text152"><tspan
               x="0 11.988 21.996 25.902 29.898001 39.798 44.874001 54.773998 64.781998 74.681999 79.758003 88.758003 98.657997 102.654 111.654"
               y="0"
               id="tspan150">Build and solve</tspan></text></g><g
           id="g154"><text
             transform="matrix(1,0,0,-1,336.813,86.484)"
             style="font-variant:normal;font-weight:normal;font-size:18px;font-family:'Liberation Sans';-inkscape-font-specification:LiberationSans;writing-mode:lr-tb;fill:#000000;fill-opacity:1;fill-rule:nonzero;stroke:none"
             id="text158"><tspan
               x="0 5.0760002 14.976 24.983999 29.969999 39.978001 49.986 59.886002 69.893997 74.879997 78.875999 88.884003"
               y="0"
               id="tspan156">the equation</tspan></text></g><path
           d="M 311.811,166.535 H 386.22 V 142.582"
           style="fill:none;stroke:#3465a4;stroke-width:1.29975003;stroke-linecap:butt;stroke-linejoin:miter;stroke-miterlimit:10;stroke-dasharray:none;stroke-opacity:1"
           id="path160" /><path
           d="m 390.472,143.149 -4.252,-8.504 -4.251,8.504 z"
           style="fill:#3465a4;fill-opacity:1;fill-rule:evenodd;stroke:none"
           id="path162" /><path
           d="M 386.22,70.866 V 56.636 H 230.343 v 49.691 H 127.559 v -6.265"
           style="fill:none;stroke:#3465a4;stroke-width:1.29975003;stroke-linecap:butt;stroke-linejoin:miter;stroke-miterlimit:10;stroke-dasharray:none;stroke-opacity:1"
           id="path164" /><path
           d="m 131.811,100.629 -4.252,-8.504 -4.252,8.504 z"
           style="fill:#3465a4;fill-opacity:1;fill-rule:evenodd;stroke:none"
           id="path166" /><path
           d="M 177.165,166.535 H 69.591 v 336.642 h 150.094 v -6.264"
           style="fill:none;stroke:#3465a4;stroke-width:1.29974997;stroke-linecap:butt;stroke-linejoin:miter;stroke-miterlimit:10;stroke-dasharray:none;stroke-opacity:1"
           id="path168" /><path
           d="m 223.937,497.48 -4.252,-8.504 -4.252,8.504 z"
           style="fill:#3465a4;fill-opacity:1;fill-rule:evenodd;stroke:none"
           id="path170" /><path
           d="m 233.858,230.314 h 10.63 v -16.866"
           style="fill:none;stroke:#3465a4;stroke-width:1.30000003;stroke-linecap:butt;stroke-linejoin:miter;stroke-miterlimit:10;stroke-dasharray:none;stroke-opacity:1"
           id="path172" /><path
           d="m 248.74,214.015 -4.252,-8.504 -4.252,8.504 z"
           style="fill:#3465a4;fill-opacity:1;fill-rule:evenodd;stroke:none"
           id="path174" /><g
           id="g176"><g
             id="g178" /><g
             id="g188"><g
               clip-path="url(#clipPath182)"
               opacity="0.5"
               id="g186"><path
                 d="m 581.102,545.669 v 0 c -6.208,0 -12.33,-1.644 -17.716,-4.734 -5.386,-3.118 -9.865,-7.597 -12.983,-12.983 -3.09,-5.386 -4.734,-11.508 -4.734,-17.716 v -141.733 -0.028 c 0,-6.208 1.644,-12.331 4.734,-17.717 3.118,-5.385 7.597,-9.864 12.983,-12.982 5.386,-3.09 11.508,-4.734 17.716,-4.734 h 141.733 0.028 c 6.208,0 12.331,1.644 17.717,4.734 5.385,3.118 9.864,7.597 12.982,12.982 3.09,5.386 4.734,11.509 4.734,17.717 v 141.761 0 0 c 0,6.208 -1.644,12.33 -4.734,17.716 -3.118,5.386 -7.597,9.865 -12.982,12.983 -5.386,3.09 -11.509,4.734 -17.717,4.734 z"
                 style="fill:#729fcf;fill-opacity:1;fill-rule:evenodd;stroke:none"
                 id="path184" /></g></g></g><g
           id="g190"><path
             d="m 581.102,545.669 v 0 c -6.208,0 -12.33,-1.644 -17.716,-4.734 -5.386,-3.118 -9.865,-7.597 -12.983,-12.983 -3.09,-5.386 -4.734,-11.508 -4.734,-17.716 v -141.733 -0.028 c 0,-6.208 1.644,-12.331 4.734,-17.717 3.118,-5.385 7.597,-9.864 12.983,-12.982 5.386,-3.09 11.508,-4.734 17.716,-4.734 h 141.733 0.028 c 6.208,0 12.331,1.644 17.717,4.734 5.385,3.118 9.864,7.597 12.982,12.982 3.09,5.386 4.734,11.509 4.734,17.717 v 141.761 0 0 c 0,6.208 -1.644,12.33 -4.734,17.716 -3.118,5.386 -7.597,9.865 -12.982,12.983 -5.386,3.09 -11.509,4.734 -17.717,4.734 z"
             style="fill:none;stroke:#3465a4;stroke-width:0.75;stroke-linecap:butt;stroke-linejoin:round;stroke-miterlimit:10;stroke-dasharray:none;stroke-opacity:1"
             id="path192" /></g><path
           d="m 594.085,517.322 h 0.028 c -1.048,0 -2.069,-0.283 -2.976,-0.793 -0.879,-0.511 -1.644,-1.276 -2.154,-2.155 -0.511,-0.907 -0.794,-1.927 -0.794,-2.976 v -23.613 -0.028 c 0,-1.021 0.283,-2.041 0.794,-2.948 0.51,-0.879 1.275,-1.644 2.154,-2.154 0.907,-0.511 1.928,-0.794 2.976,-0.794 h 115.739 0.028 c 1.021,0 2.041,0.283 2.948,0.794 0.879,0.51 1.644,1.275 2.155,2.154 0.51,0.907 0.793,1.927 0.793,2.948 v 23.669 -0.028 0 c 0,1.049 -0.283,2.069 -0.793,2.976 -0.511,0.879 -1.276,1.644 -2.155,2.155 -0.907,0.51 -1.927,0.793 -2.948,0.793 z"
           style="fill:#729fcf;fill-opacity:1;fill-rule:evenodd;stroke:none"
           id="path194" /><g
           id="g196"><path
             d="m 594.085,517.322 h 0.028 c -1.048,0 -2.069,-0.283 -2.976,-0.793 -0.879,-0.511 -1.644,-1.276 -2.154,-2.155 -0.511,-0.907 -0.794,-1.927 -0.794,-2.976 v -23.613 -0.028 c 0,-1.021 0.283,-2.041 0.794,-2.948 0.51,-0.879 1.275,-1.644 2.154,-2.154 0.907,-0.511 1.928,-0.794 2.976,-0.794 h 115.739 0.028 c 1.021,0 2.041,0.283 2.948,0.794 0.879,0.51 1.644,1.275 2.155,2.154 0.51,0.907 0.793,1.927 0.793,2.948 v 23.669 -0.028 0 c 0,1.049 -0.283,2.069 -0.793,2.976 -0.511,0.879 -1.276,1.644 -2.155,2.155 -0.907,0.51 -1.927,0.793 -2.948,0.793 z"
             style="fill:none;stroke:#3465a4;stroke-width:0.75;stroke-linecap:butt;stroke-linejoin:round;stroke-miterlimit:10;stroke-dasharray:none;stroke-opacity:1"
             id="path198" /></g><g
           id="g200"><text
             transform="matrix(1,0,0,-1,600.491,493.369)"
             style="font-variant:normal;font-weight:normal;font-size:18px;font-family:'Liberation Sans';-inkscape-font-specification:LiberationSans;writing-mode:lr-tb;fill:#000000;fill-opacity:1;fill-rule:nonzero;stroke:none"
             id="text204"><tspan
               x="0 14.076 24.084 29.07 32.976002 47.970001 51.966 60.966 70.973999 75.959999 84.959999 94.968002 98.874001"
               y="0"
               id="tspan202">Optimize cell</tspan></text></g><path
           d="m 579.912,457.795 v 0 c -1.021,0 -2.041,-0.284 -2.948,-0.794 -0.879,-0.51 -1.644,-1.276 -2.155,-2.154 -0.51,-0.907 -0.793,-1.928 -0.793,-2.977 v -23.612 -0.029 c 0,-1.02 0.283,-2.041 0.793,-2.948 0.511,-0.878 1.276,-1.644 2.155,-2.154 0.907,-0.51 1.927,-0.794 2.948,-0.794 h 144.113 v 0 c 1.049,0 2.069,0.284 2.977,0.794 0.878,0.51 1.644,1.276 2.154,2.154 0.51,0.907 0.794,1.928 0.794,2.948 l -0.029,23.67 0.029,-0.029 v 0 c 0,1.049 -0.284,2.07 -0.794,2.977 -0.51,0.878 -1.276,1.644 -2.154,2.154 -0.908,0.51 -1.928,0.794 -2.977,0.794 z"
           style="fill:#729fcf;fill-opacity:1;fill-rule:evenodd;stroke:none"
           id="path206" /><g
           id="g208"><path
             d="m 579.912,457.795 v 0 c -1.021,0 -2.041,-0.284 -2.948,-0.794 -0.879,-0.51 -1.644,-1.276 -2.155,-2.154 -0.51,-0.907 -0.793,-1.928 -0.793,-2.977 v -23.612 -0.029 c 0,-1.02 0.283,-2.041 0.793,-2.948 0.511,-0.878 1.276,-1.644 2.155,-2.154 0.907,-0.51 1.927,-0.794 2.948,-0.794 h 144.113 v 0 c 1.049,0 2.069,0.284 2.977,0.794 0.878,0.51 1.644,1.276 2.154,2.154 0.51,0.907 0.794,1.928 0.794,2.948 l -0.029,23.67 0.029,-0.029 v 0 c 0,1.049 -0.284,2.07 -0.794,2.977 -0.51,0.878 -1.276,1.644 -2.154,2.154 -0.908,0.51 -1.928,0.794 -2.977,0.794 z"
             style="fill:none;stroke:#3465a4;stroke-width:0.75;stroke-linecap:butt;stroke-linejoin:round;stroke-miterlimit:10;stroke-dasharray:none;stroke-opacity:1"
             id="path210" /></g><g
           id="g212"><text
             transform="matrix(1,0,0,-1,592.498,433.785)"
             style="font-variant:normal;font-weight:normal;font-size:18px;font-family:'Liberation Sans';-inkscape-font-specification:LiberationSans;writing-mode:lr-tb;fill:#000000;fill-opacity:1;fill-rule:nonzero;stroke:none"
             id="text216"><tspan
               x="0 13.986 23.993999 28.98 32.976002 47.970001 51.875999 60.875999 70.884003 75.870003 80.945999 93.851997 107.928"
               y="0"
               id="tspan214">Optimize IDOF</tspan></text></g><path
           d="m 568.431,403.936 h 0.029 c -1.219,0 -2.381,-0.311 -3.43,-0.907 -1.049,-0.623 -1.899,-1.474 -2.523,-2.523 -0.595,-1.048 -0.907,-2.211 -0.907,-3.429 v -27.411 0 c 0,-1.219 0.312,-2.382 0.907,-3.43 0.624,-1.049 1.474,-1.9 2.523,-2.523 1.049,-0.595 2.211,-0.907 3.43,-0.907 h 167.017 v 0 c 1.219,0 2.381,0.312 3.43,0.907 1.049,0.623 1.899,1.474 2.523,2.523 0.595,1.048 0.907,2.211 0.907,3.43 l -0.028,27.439 0.028,-0.028 v 0 c 0,1.218 -0.312,2.381 -0.907,3.429 -0.624,1.049 -1.474,1.9 -2.523,2.523 -1.049,0.596 -2.211,0.907 -3.43,0.907 z"
           style="fill:#729fcf;fill-opacity:1;fill-rule:evenodd;stroke:none"
           id="path218" /><g
           id="g220"><path
             d="m 568.431,403.936 h 0.029 c -1.219,0 -2.381,-0.311 -3.43,-0.907 -1.049,-0.623 -1.899,-1.474 -2.523,-2.523 -0.595,-1.048 -0.907,-2.211 -0.907,-3.429 v -27.411 0 c 0,-1.219 0.312,-2.382 0.907,-3.43 0.624,-1.049 1.474,-1.9 2.523,-2.523 1.049,-0.595 2.211,-0.907 3.43,-0.907 h 167.017 v 0 c 1.219,0 2.381,0.312 3.43,0.907 1.049,0.623 1.899,1.474 2.523,2.523 0.595,1.048 0.907,2.211 0.907,3.43 l -0.028,27.439 0.028,-0.028 v 0 c 0,1.218 -0.312,2.381 -0.907,3.429 -0.624,1.049 -1.474,1.9 -2.523,2.523 -1.049,0.596 -2.211,0.907 -3.43,0.907 z"
             style="fill:none;stroke:#3465a4;stroke-width:0.75;stroke-linecap:butt;stroke-linejoin:round;stroke-miterlimit:10;stroke-dasharray:none;stroke-opacity:1"
             id="path222" /></g><g
           id="g224"><text
             transform="matrix(1,0,0,-1,573.704,377.064)"
             style="font-variant:normal;font-weight:normal;font-size:18px;font-family:'Liberation Sans';-inkscape-font-specification:LiberationSans;writing-mode:lr-tb;fill:#000000;fill-opacity:1;fill-rule:nonzero;stroke:none"
             id="text228"><tspan
               x="0 14.076 23.976 29.052 32.958 47.952 51.948002 60.948002 70.956001 75.942001 84.942001 94.949997 98.856003 102.852 113.346 118.422 131.328 145.40401"
               y="0"
               id="tspan226">Optimize cell+IDOF</tspan></text></g><path
           d="M 651.969,481.889 V 465.732"
           style="fill:none;stroke:#3465a4;stroke-width:1.30000003;stroke-linecap:butt;stroke-linejoin:miter;stroke-miterlimit:10;stroke-dasharray:none;stroke-opacity:1"
           id="path230" /><path
           d="m 656.22,466.299 -4.251,-8.504 -4.252,8.504 z"
           style="fill:#3465a4;fill-opacity:1;fill-rule:evenodd;stroke:none"
           id="path232" /><path
           d="M 651.969,422.362 V 411.873"
           style="fill:none;stroke:#3465a4;stroke-width:0.1;stroke-linecap:butt;stroke-linejoin:miter;stroke-miterlimit:10;stroke-dasharray:none;stroke-opacity:1"
           id="path234" /><path
           d="m 656.22,412.44 -4.251,-8.504 -4.252,8.504 z"
           style="fill:#3465a4;fill-opacity:1;fill-rule:evenodd;stroke:none;stroke-width:1.30000003;stroke-miterlimit:10;stroke-dasharray:none"
           id="path236" /><path
           d="M 651.969,362.834 V 341.007"
           style="fill:none;stroke:#3465a4;stroke-width:1.30000003;stroke-linecap:butt;stroke-linejoin:miter;stroke-miterlimit:10;stroke-dasharray:none;stroke-opacity:1"
           id="path238" /><path
           d="m 656.22,341.574 -4.251,-8.504 -4.252,8.504 z"
           style="fill:#3465a4;fill-opacity:1;fill-rule:evenodd;stroke:none"
           id="path240" /><path
           d="m 651.969,545.669 v -20.41"
           style="fill:none;stroke:#3465a4;stroke-width:1.30000003;stroke-linecap:butt;stroke-linejoin:miter;stroke-miterlimit:10;stroke-dasharray:none;stroke-opacity:1"
           id="path242" /><path
           d="m 656.22,525.826 -4.251,-8.504 -4.252,8.504 z"
           style="fill:#3465a4;fill-opacity:1;fill-rule:evenodd;stroke:none"
           id="path244" /><g
           id="g246"><g
             id="g248" /><g
             id="g258"><g
               clip-path="url(#clipPath252)"
               opacity="0.5"
               id="g256"><path
                 d="m 561.005,262.204 h 0.028 c -5.187,0 -10.29,-1.36 -14.768,-3.968 -4.479,-2.58 -8.221,-6.322 -10.8,-10.8 -2.608,-4.479 -3.969,-9.581 -3.969,-14.769 v -118.12 0 c 0,-5.187 1.361,-10.289 3.969,-14.768 2.579,-4.479 6.321,-8.221 10.8,-10.8 4.478,-2.608 9.581,-3.969 14.768,-3.969 l 181.899,0.029 V 85.01 c 5.188,0 10.29,1.361 14.769,3.969 4.479,2.579 8.22,6.321 10.8,10.8 2.608,4.479 3.968,9.581 3.968,14.768 v 118.148 -0.028 0 c 0,5.188 -1.36,10.29 -3.968,14.769 -2.58,4.478 -6.321,8.22 -10.8,10.8 -4.479,2.608 -9.581,3.968 -14.769,3.968 z"
                 style="fill:#729fcf;fill-opacity:1;fill-rule:evenodd;stroke:none"
                 id="path254" /></g></g></g><g
           id="g260"><path
             d="m 561.005,262.204 h 0.028 c -5.187,0 -10.29,-1.36 -14.768,-3.968 -4.479,-2.58 -8.221,-6.322 -10.8,-10.8 -2.608,-4.479 -3.969,-9.581 -3.969,-14.769 v -118.12 0 c 0,-5.187 1.361,-10.289 3.969,-14.768 2.579,-4.479 6.321,-8.221 10.8,-10.8 4.478,-2.608 9.581,-3.969 14.768,-3.969 l 181.899,0.029 V 85.01 c 5.188,0 10.29,1.361 14.769,3.969 4.479,2.579 8.22,6.321 10.8,10.8 2.608,4.479 3.968,9.581 3.968,14.768 v 118.148 -0.028 0 c 0,5.188 -1.36,10.29 -3.968,14.769 -2.58,4.478 -6.321,8.22 -10.8,10.8 -4.479,2.608 -9.581,3.968 -14.769,3.968 z"
             style="fill:none;stroke:#3465a4;stroke-width:0.75;stroke-linecap:butt;stroke-linejoin:round;stroke-miterlimit:10;stroke-dasharray:none;stroke-opacity:1"
             id="path262" /></g><path
           d="m 579.912,233.858 v 0 c -1.021,0 -2.041,-0.284 -2.948,-0.794 -0.879,-0.51 -1.644,-1.276 -2.155,-2.154 -0.51,-0.907 -0.793,-1.928 -0.793,-2.977 v -23.612 0 c 0,-1.049 0.283,-2.07 0.793,-2.977 0.511,-0.878 1.276,-1.644 2.155,-2.154 0.907,-0.51 1.927,-0.794 2.948,-0.794 h 144.113 v 0 c 1.049,0 2.069,0.284 2.977,0.794 0.878,0.51 1.644,1.276 2.154,2.154 0.51,0.907 0.794,1.928 0.794,2.977 l -0.029,23.641 0.029,-0.029 v 0 c 0,1.049 -0.284,2.07 -0.794,2.977 -0.51,0.878 -1.276,1.644 -2.154,2.154 -0.908,0.51 -1.928,0.794 -2.977,0.794 z"
           style="fill:#729fcf;fill-opacity:1;fill-rule:evenodd;stroke:none"
           id="path264" /><g
           id="g266"><path
             d="m 579.912,233.858 v 0 c -1.021,0 -2.041,-0.284 -2.948,-0.794 -0.879,-0.51 -1.644,-1.276 -2.155,-2.154 -0.51,-0.907 -0.793,-1.928 -0.793,-2.977 v -23.612 0 c 0,-1.049 0.283,-2.07 0.793,-2.977 0.511,-0.878 1.276,-1.644 2.155,-2.154 0.907,-0.51 1.927,-0.794 2.948,-0.794 h 144.113 v 0 c 1.049,0 2.069,0.284 2.977,0.794 0.878,0.51 1.644,1.276 2.154,2.154 0.51,0.907 0.794,1.928 0.794,2.977 l -0.029,23.641 0.029,-0.029 v 0 c 0,1.049 -0.284,2.07 -0.794,2.977 -0.51,0.878 -1.276,1.644 -2.154,2.154 -0.908,0.51 -1.928,0.794 -2.977,0.794 z"
             style="fill:none;stroke:#3465a4;stroke-width:0.75;stroke-linecap:butt;stroke-linejoin:round;stroke-miterlimit:10;stroke-dasharray:none;stroke-opacity:1"
             id="path268" /></g><g
           id="g270"><text
             transform="matrix(1,0,0,-1,592.498,209.877)"
             style="font-variant:normal;font-weight:normal;font-size:18px;font-family:'Liberation Sans';-inkscape-font-specification:LiberationSans;writing-mode:lr-tb;fill:#000000;fill-opacity:1;fill-rule:nonzero;stroke:none"
             id="text274"><tspan
               x="0 13.986 23.993999 28.98 32.976002 47.970001 51.875999 60.875999 70.884003 75.870003 80.945999 93.851997 107.928"
               y="0"
               id="tspan272">Optimize IDOF</tspan></text></g><path
           d="m 572.825,177.165 h 0.029 c -1.673,0 -3.317,-0.425 -4.734,-1.276 -1.446,-0.822 -2.637,-2.012 -3.459,-3.458 -0.85,-1.417 -1.275,-3.062 -1.275,-4.706 v -37.814 -0.028 c 0,-1.644 0.425,-3.288 1.275,-4.706 0.822,-1.445 2.013,-2.636 3.459,-3.458 1.417,-0.85 3.061,-1.275 4.734,-1.275 h 158.258 v 0 c 1.672,0 3.316,0.425 4.734,1.275 1.445,0.822 2.636,2.013 3.458,3.458 0.85,1.418 1.276,3.062 1.276,4.706 l -0.029,37.842 h 0.029 v 0 c 0,1.644 -0.426,3.289 -1.276,4.706 -0.822,1.446 -2.013,2.636 -3.458,3.458 -1.418,0.851 -3.062,1.276 -4.734,1.276 z"
           style="fill:#729fcf;fill-opacity:1;fill-rule:evenodd;stroke:none"
           id="path276" /><g
           id="g278"><path
             d="m 572.825,177.165 h 0.029 c -1.673,0 -3.317,-0.425 -4.734,-1.276 -1.446,-0.822 -2.637,-2.012 -3.459,-3.458 -0.85,-1.417 -1.275,-3.062 -1.275,-4.706 v -37.814 -0.028 c 0,-1.644 0.425,-3.288 1.275,-4.706 0.822,-1.445 2.013,-2.636 3.459,-3.458 1.417,-0.85 3.061,-1.275 4.734,-1.275 h 158.258 v 0 c 1.672,0 3.316,0.425 4.734,1.275 1.445,0.822 2.636,2.013 3.458,3.458 0.85,1.418 1.276,3.062 1.276,4.706 l -0.029,37.842 h 0.029 v 0 c 0,1.644 -0.426,3.289 -1.276,4.706 -0.822,1.446 -2.013,2.636 -3.458,3.458 -1.418,0.851 -3.062,1.276 -4.734,1.276 z"
             style="fill:none;stroke:#3465a4;stroke-width:0.75;stroke-linecap:butt;stroke-linejoin:round;stroke-miterlimit:10;stroke-dasharray:none;stroke-opacity:1"
             id="path280" /></g><g
           id="g282"><text
             transform="matrix(1,0,0,-1,588.104,152.673)"
             style="font-variant:normal;font-weight:normal;font-size:18px;font-family:'Liberation Sans';-inkscape-font-specification:LiberationSans;writing-mode:lr-tb;fill:#000000;fill-opacity:1;fill-rule:nonzero;stroke:none"
             id="text286"><tspan
               x="0 12.906 22.914 26.82 35.91 45.810001 49.806 59.706001 64.781998 74.681999 79.758003 88.758003 93.744003 99.737999 109.746 118.746"
               y="0"
               id="tspan284">Calculate stress</tspan></text></g><g
           id="g288"><text
             transform="matrix(1,0,0,-1,626.995,132.462)"
             style="font-variant:normal;font-weight:normal;font-size:18px;font-family:'Liberation Sans';-inkscape-font-specification:LiberationSans;writing-mode:lr-tb;fill:#000000;fill-opacity:1;fill-rule:nonzero;stroke:none"
             id="text292"><tspan
               x="0 5.0760002 14.976 24.983999 33.984001 43.883999"
               y="0"
               id="tspan290">tensor</tspan></text></g><path
           d="M 651.969,262.204 V 241.795"
           style="fill:none;stroke:#3465a4;stroke-width:1.30000003;stroke-linecap:butt;stroke-linejoin:miter;stroke-miterlimit:10;stroke-dasharray:none;stroke-opacity:1"
           id="path294" /><path
           d="m 656.22,242.362 -4.251,-8.504 -4.252,8.504 z"
           style="fill:#3465a4;fill-opacity:1;fill-rule:evenodd;stroke:none"
           id="path296" /><path
           d="M 651.969,198.425 V 185.102"
           style="fill:none;stroke:#3465a4;stroke-width:1.30000003;stroke-linecap:butt;stroke-linejoin:miter;stroke-miterlimit:10;stroke-dasharray:none;stroke-opacity:1"
           id="path298" /><path
           d="m 656.22,185.669 -4.251,-8.504 -4.252,8.504 z"
           style="fill:#3465a4;fill-opacity:1;fill-rule:evenodd;stroke:none"
           id="path300" /><path
           d="M 651.969,120.472 V 92.976"
           style="fill:none;stroke:#3465a4;stroke-width:1.30000003;stroke-linecap:butt;stroke-linejoin:miter;stroke-miterlimit:10;stroke-dasharray:none;stroke-opacity:1"
           id="path302" /><path
           d="m 656.22,93.543 -4.251,-8.504 -4.252,8.504 z"
           style="fill:#3465a4;fill-opacity:1;fill-rule:evenodd;stroke:none"
           id="path304" /></g></g></g></svg>
